<mxfile host="app.diagrams.net" modified="2024-05-20T11:05:04.999Z" agent="Mozilla/5.0 (Windows NT 10.0; Win64; x64) AppleWebKit/537.36 (KHTML, like Gecko) Chrome/125.0.0.0 Safari/537.36" etag="kCXx50s8xas4mHsmvJR1" version="24.4.4" type="github">
  <diagram name="Page-1" id="GOq0J2rVROoGMqk2-0tV">
    <mxGraphModel dx="3441" dy="140" grid="0" gridSize="10" guides="1" tooltips="1" connect="1" arrows="1" fold="1" page="0" pageScale="1" pageWidth="827" pageHeight="1169" math="0" shadow="0">
      <root>
        <mxCell id="0" />
        <mxCell id="1" parent="0" />
        <mxCell id="a9L5b0YJBNE10wTY4Ymj-1" value="&lt;b&gt;See list of appointments&lt;/b&gt;" style="shape=parallelogram;perimeter=parallelogramPerimeter;whiteSpace=wrap;html=1;fixedSize=1;fillColor=#dae8fc;strokeColor=#000000;fontFamily=Helvetica;fontSize=11;fontColor=default;labelBackgroundColor=none;" parent="1" vertex="1">
          <mxGeometry x="-1827" y="417" width="207" height="29" as="geometry" />
        </mxCell>
        <mxCell id="a9L5b0YJBNE10wTY4Ymj-2" value="" style="ellipse;whiteSpace=wrap;html=1;aspect=fixed;fillColor=#FFD966;strokeWidth=2;" parent="1" vertex="1">
          <mxGeometry x="-1737.5" y="520" width="28" height="28" as="geometry" />
        </mxCell>
        <mxCell id="a9L5b0YJBNE10wTY4Ymj-3" value="" style="endArrow=block;html=1;rounded=0;endFill=1;strokeWidth=2;" parent="1" source="a9L5b0YJBNE10wTY4Ymj-2" target="a9L5b0YJBNE10wTY4Ymj-1" edge="1">
          <mxGeometry width="50" height="50" relative="1" as="geometry">
            <mxPoint x="-1647.814815076529" y="606.9718581716346" as="sourcePoint" />
            <mxPoint x="-1835.998191881919" y="494" as="targetPoint" />
          </mxGeometry>
        </mxCell>
        <mxCell id="a9L5b0YJBNE10wTY4Ymj-4" value="" style="endArrow=none;html=1;rounded=0;strokeWidth=2;" parent="1" source="a9L5b0YJBNE10wTY4Ymj-5" target="a9L5b0YJBNE10wTY4Ymj-2" edge="1">
          <mxGeometry width="50" height="50" relative="1" as="geometry">
            <mxPoint x="-1723" y="616" as="sourcePoint" />
            <mxPoint x="-1623.81" y="605" as="targetPoint" />
          </mxGeometry>
        </mxCell>
        <mxCell id="a9L5b0YJBNE10wTY4Ymj-5" value="&lt;b&gt;Appointments details provided&lt;/b&gt;" style="shape=parallelogram;perimeter=parallelogramPerimeter;whiteSpace=wrap;html=1;fixedSize=1;fillColor=#FFD966;strokeColor=#000000;strokeWidth=3;fontFamily=Helvetica;fontSize=11;fontColor=default;labelBackgroundColor=none;" parent="1" vertex="1">
          <mxGeometry x="-2114" y="647" width="231" height="44" as="geometry" />
        </mxCell>
        <mxCell id="a9L5b0YJBNE10wTY4Ymj-7" value="" style="endArrow=none;html=1;rounded=0;strokeWidth=2;" parent="1" source="a9L5b0YJBNE10wTY4Ymj-11" target="a9L5b0YJBNE10wTY4Ymj-2" edge="1">
          <mxGeometry width="50" height="50" relative="1" as="geometry">
            <mxPoint x="-1723.5" y="647" as="sourcePoint" />
            <mxPoint x="-1713" y="558" as="targetPoint" />
          </mxGeometry>
        </mxCell>
        <mxCell id="a9L5b0YJBNE10wTY4Ymj-11" value="&lt;b&gt;Details validated&lt;/b&gt;" style="shape=parallelogram;perimeter=parallelogramPerimeter;whiteSpace=wrap;html=1;fixedSize=1;fillColor=#dae8fc;strokeColor=#000000;strokeWidth=3;fontFamily=Helvetica;fontSize=11;fontColor=default;labelBackgroundColor=none;" parent="1" vertex="1">
          <mxGeometry x="-1839" y="647" width="231" height="44" as="geometry" />
        </mxCell>
        <mxCell id="a9L5b0YJBNE10wTY4Ymj-12" value="" style="ellipse;whiteSpace=wrap;html=1;aspect=fixed;fillColor=#FAADFF;strokeWidth=2;fontFamily=Helvetica;fontSize=11;fontColor=default;labelBackgroundColor=default;" parent="1" vertex="1">
          <mxGeometry x="-2012" y="729" width="28" height="28" as="geometry" />
        </mxCell>
        <mxCell id="a9L5b0YJBNE10wTY4Ymj-13" value="" style="endArrow=block;html=1;rounded=0;endFill=1;strokeWidth=2;strokeColor=default;align=center;verticalAlign=middle;fontFamily=Helvetica;fontSize=11;fontColor=default;labelBackgroundColor=default;" parent="1" source="a9L5b0YJBNE10wTY4Ymj-12" target="a9L5b0YJBNE10wTY4Ymj-5" edge="1">
          <mxGeometry width="50" height="50" relative="1" as="geometry">
            <mxPoint x="-2105.2548150765288" y="812.9718581716347" as="sourcePoint" />
            <mxPoint x="-2009.3705882352942" y="689.0000000000001" as="targetPoint" />
          </mxGeometry>
        </mxCell>
        <mxCell id="a9L5b0YJBNE10wTY4Ymj-14" value="" style="endArrow=none;html=1;rounded=0;strokeWidth=2;strokeColor=default;align=center;verticalAlign=middle;fontFamily=Helvetica;fontSize=11;fontColor=default;labelBackgroundColor=default;" parent="1" source="a9L5b0YJBNE10wTY4Ymj-16" target="a9L5b0YJBNE10wTY4Ymj-12" edge="1">
          <mxGeometry width="50" height="50" relative="1" as="geometry">
            <mxPoint x="-1948.6064937091232" y="853.5" as="sourcePoint" />
            <mxPoint x="-2063.25" y="809" as="targetPoint" />
            <Array as="points" />
          </mxGeometry>
        </mxCell>
        <mxCell id="a9L5b0YJBNE10wTY4Ymj-15" value="" style="group" parent="1" vertex="1" connectable="0">
          <mxGeometry x="-2058" y="797" width="120" height="40" as="geometry" />
        </mxCell>
        <mxCell id="a9L5b0YJBNE10wTY4Ymj-16" value="&lt;div&gt;&lt;b&gt;User&lt;/b&gt;&lt;/div&gt;" style="shape=hexagon;perimeter=hexagonPerimeter2;whiteSpace=wrap;html=1;fixedSize=1;fillColor=#FFF2CC;fontFamily=Helvetica;fontSize=11;fontColor=default;labelBackgroundColor=none;" parent="a9L5b0YJBNE10wTY4Ymj-15" vertex="1">
          <mxGeometry width="120" height="40" as="geometry" />
        </mxCell>
        <mxCell id="a9L5b0YJBNE10wTY4Ymj-17" value="" style="shape=umlActor;verticalLabelPosition=bottom;verticalAlign=top;html=1;outlineConnect=0;fillColor=none;strokeWidth=2;fontFamily=Helvetica;fontSize=11;fontColor=default;labelBackgroundColor=default;" parent="a9L5b0YJBNE10wTY4Ymj-15" vertex="1">
          <mxGeometry x="14.983050847457434" y="7.75" width="10.372881355932204" height="24.5" as="geometry" />
        </mxCell>
        <mxCell id="a9L5b0YJBNE10wTY4Ymj-18" value="&lt;div&gt;&lt;b&gt;Validation controller&lt;/b&gt;&lt;/div&gt;" style="shape=hexagon;perimeter=hexagonPerimeter2;whiteSpace=wrap;html=1;fixedSize=1;fillColor=#FFF2CC;fontFamily=Helvetica;fontSize=11;fontColor=default;labelBackgroundColor=none;" parent="1" vertex="1">
          <mxGeometry x="-1922.5" y="996" width="146" height="38" as="geometry" />
        </mxCell>
        <mxCell id="a9L5b0YJBNE10wTY4Ymj-19" value="" style="ellipse;whiteSpace=wrap;html=1;aspect=fixed;fillColor=#FF0000;strokeWidth=2;" parent="1" vertex="1">
          <mxGeometry x="-1863.5" y="949" width="28" height="28" as="geometry" />
        </mxCell>
        <mxCell id="a9L5b0YJBNE10wTY4Ymj-20" value="" style="endArrow=block;html=1;rounded=0;endFill=1;strokeWidth=2;" parent="1" source="a9L5b0YJBNE10wTY4Ymj-19" target="a9L5b0YJBNE10wTY4Ymj-33" edge="1">
          <mxGeometry width="50" height="50" relative="1" as="geometry">
            <mxPoint x="-2021.5048150765288" y="1094.9718581716347" as="sourcePoint" />
            <mxPoint x="-1973" y="989" as="targetPoint" />
          </mxGeometry>
        </mxCell>
        <mxCell id="a9L5b0YJBNE10wTY4Ymj-21" value="" style="endArrow=none;html=1;rounded=0;strokeWidth=2;" parent="1" source="a9L5b0YJBNE10wTY4Ymj-18" target="a9L5b0YJBNE10wTY4Ymj-19" edge="1">
          <mxGeometry width="50" height="50" relative="1" as="geometry">
            <mxPoint x="-2022.5" y="1157" as="sourcePoint" />
            <mxPoint x="-1997.5" y="1093" as="targetPoint" />
          </mxGeometry>
        </mxCell>
        <mxCell id="a9L5b0YJBNE10wTY4Ymj-27" value="&lt;b&gt;Obtain appointments information&lt;/b&gt;" style="shape=parallelogram;perimeter=parallelogramPerimeter;whiteSpace=wrap;html=1;fixedSize=1;fillColor=#dae8fc;strokeColor=#000000;strokeWidth=3;fontFamily=Helvetica;fontSize=11;fontColor=default;labelBackgroundColor=none;" parent="1" vertex="1">
          <mxGeometry x="-1561" y="647" width="231" height="44" as="geometry" />
        </mxCell>
        <mxCell id="a9L5b0YJBNE10wTY4Ymj-28" value="" style="endArrow=none;html=1;rounded=0;strokeWidth=2;" parent="1" source="a9L5b0YJBNE10wTY4Ymj-27" target="a9L5b0YJBNE10wTY4Ymj-2" edge="1">
          <mxGeometry width="50" height="50" relative="1" as="geometry">
            <mxPoint x="-1714" y="657" as="sourcePoint" />
            <mxPoint x="-1714" y="558" as="targetPoint" />
          </mxGeometry>
        </mxCell>
        <mxCell id="a9L5b0YJBNE10wTY4Ymj-29" value="&lt;div&gt;&lt;b&gt;Database controller&lt;/b&gt;&lt;/div&gt;" style="shape=hexagon;perimeter=hexagonPerimeter2;whiteSpace=wrap;html=1;fixedSize=1;fillColor=#FFF2CC;fontFamily=Helvetica;fontSize=11;fontColor=default;labelBackgroundColor=none;" parent="1" vertex="1">
          <mxGeometry x="-1518.5" y="788" width="146" height="38" as="geometry" />
        </mxCell>
        <mxCell id="a9L5b0YJBNE10wTY4Ymj-30" value="" style="ellipse;whiteSpace=wrap;html=1;aspect=fixed;fillColor=#FF0000;strokeWidth=2;" parent="1" vertex="1">
          <mxGeometry x="-1459.5" y="729" width="28" height="28" as="geometry" />
        </mxCell>
        <mxCell id="a9L5b0YJBNE10wTY4Ymj-31" value="" style="endArrow=block;html=1;rounded=0;endFill=1;strokeWidth=2;" parent="1" source="a9L5b0YJBNE10wTY4Ymj-30" target="a9L5b0YJBNE10wTY4Ymj-27" edge="1">
          <mxGeometry width="50" height="50" relative="1" as="geometry">
            <mxPoint x="-1421.004815076529" y="790.9718581716346" as="sourcePoint" />
            <mxPoint x="-1425" y="746" as="targetPoint" />
          </mxGeometry>
        </mxCell>
        <mxCell id="a9L5b0YJBNE10wTY4Ymj-32" value="" style="endArrow=none;html=1;rounded=0;strokeWidth=2;" parent="1" source="a9L5b0YJBNE10wTY4Ymj-29" target="a9L5b0YJBNE10wTY4Ymj-30" edge="1">
          <mxGeometry width="50" height="50" relative="1" as="geometry">
            <mxPoint x="-1422" y="853" as="sourcePoint" />
            <mxPoint x="-1397" y="789" as="targetPoint" />
          </mxGeometry>
        </mxCell>
        <mxCell id="a9L5b0YJBNE10wTY4Ymj-33" value="&lt;b&gt;Details ok&lt;/b&gt;" style="shape=parallelogram;perimeter=parallelogramPerimeter;whiteSpace=wrap;html=1;fixedSize=1;fillColor=#dae8fc;strokeColor=#000000;strokeWidth=3;fontFamily=Helvetica;fontSize=11;fontColor=default;labelBackgroundColor=none;" parent="1" vertex="1">
          <mxGeometry x="-1965" y="862" width="231" height="44" as="geometry" />
        </mxCell>
        <mxCell id="a9L5b0YJBNE10wTY4Ymj-34" value="&lt;b&gt;Doctor notified if details not ok&lt;/b&gt;" style="shape=parallelogram;perimeter=parallelogramPerimeter;whiteSpace=wrap;html=1;fixedSize=1;fillColor=#dae8fc;strokeColor=#000000;strokeWidth=3;fontFamily=Helvetica;fontSize=11;fontColor=default;labelBackgroundColor=none;" parent="1" vertex="1">
          <mxGeometry x="-1720" y="862" width="231" height="44" as="geometry" />
        </mxCell>
        <mxCell id="a9L5b0YJBNE10wTY4Ymj-35" value="" style="ellipse;whiteSpace=wrap;html=1;aspect=fixed;fillColor=#FFD966;strokeWidth=2;" parent="1" vertex="1">
          <mxGeometry x="-1738.5" y="814" width="28" height="28" as="geometry" />
        </mxCell>
        <mxCell id="a9L5b0YJBNE10wTY4Ymj-36" value="" style="endArrow=block;html=1;rounded=0;endFill=1;strokeWidth=2;" parent="1" source="a9L5b0YJBNE10wTY4Ymj-35" target="a9L5b0YJBNE10wTY4Ymj-11" edge="1">
          <mxGeometry width="50" height="50" relative="1" as="geometry">
            <mxPoint x="-1756.0048150765288" y="917.9718581716347" as="sourcePoint" />
            <mxPoint x="-1760" y="873" as="targetPoint" />
          </mxGeometry>
        </mxCell>
        <mxCell id="a9L5b0YJBNE10wTY4Ymj-37" value="" style="endArrow=none;html=1;rounded=0;strokeWidth=2;" parent="1" source="a9L5b0YJBNE10wTY4Ymj-33" target="a9L5b0YJBNE10wTY4Ymj-35" edge="1">
          <mxGeometry width="50" height="50" relative="1" as="geometry">
            <mxPoint x="-1759" y="903" as="sourcePoint" />
            <mxPoint x="-1734" y="839" as="targetPoint" />
          </mxGeometry>
        </mxCell>
        <mxCell id="a9L5b0YJBNE10wTY4Ymj-38" value="" style="endArrow=none;html=1;rounded=0;strokeWidth=2;" parent="1" source="a9L5b0YJBNE10wTY4Ymj-34" target="a9L5b0YJBNE10wTY4Ymj-35" edge="1">
          <mxGeometry width="50" height="50" relative="1" as="geometry">
            <mxPoint x="-1851" y="904" as="sourcePoint" />
            <mxPoint x="-1751" y="846" as="targetPoint" />
          </mxGeometry>
        </mxCell>
        <mxCell id="a9L5b0YJBNE10wTY4Ymj-39" value="&lt;div&gt;&lt;b&gt;Message controller&lt;/b&gt;&lt;/div&gt;" style="shape=hexagon;perimeter=hexagonPerimeter2;whiteSpace=wrap;html=1;fixedSize=1;fillColor=#FFF2CC;fontFamily=Helvetica;fontSize=11;fontColor=default;labelBackgroundColor=none;" parent="1" vertex="1">
          <mxGeometry x="-1677.5" y="996" width="146" height="38" as="geometry" />
        </mxCell>
        <mxCell id="a9L5b0YJBNE10wTY4Ymj-40" value="" style="ellipse;whiteSpace=wrap;html=1;aspect=fixed;fillColor=#FF0000;strokeWidth=2;" parent="1" vertex="1">
          <mxGeometry x="-1618.5" y="944" width="28" height="28" as="geometry" />
        </mxCell>
        <mxCell id="a9L5b0YJBNE10wTY4Ymj-41" value="" style="endArrow=block;html=1;rounded=0;endFill=1;strokeWidth=2;" parent="1" source="a9L5b0YJBNE10wTY4Ymj-40" target="a9L5b0YJBNE10wTY4Ymj-34" edge="1">
          <mxGeometry width="50" height="50" relative="1" as="geometry">
            <mxPoint x="-1592.004815076529" y="955.9718581716347" as="sourcePoint" />
            <mxPoint x="-1596" y="911" as="targetPoint" />
          </mxGeometry>
        </mxCell>
        <mxCell id="a9L5b0YJBNE10wTY4Ymj-42" value="" style="endArrow=none;html=1;rounded=0;strokeWidth=2;" parent="1" source="a9L5b0YJBNE10wTY4Ymj-39" target="a9L5b0YJBNE10wTY4Ymj-40" edge="1">
          <mxGeometry width="50" height="50" relative="1" as="geometry">
            <mxPoint x="-1593" y="1018" as="sourcePoint" />
            <mxPoint x="-1568" y="954" as="targetPoint" />
          </mxGeometry>
        </mxCell>
        <mxCell id="a9L5b0YJBNE10wTY4Ymj-48" value="&lt;b&gt;Display information&lt;/b&gt;" style="shape=parallelogram;perimeter=parallelogramPerimeter;whiteSpace=wrap;html=1;fixedSize=1;fillColor=#dae8fc;strokeColor=#000000;strokeWidth=3;fontFamily=Helvetica;fontSize=11;fontColor=default;labelBackgroundColor=none;" parent="1" vertex="1">
          <mxGeometry x="-1224" y="647" width="231" height="44" as="geometry" />
        </mxCell>
        <mxCell id="a9L5b0YJBNE10wTY4Ymj-49" value="&lt;b&gt;Interface controller&lt;/b&gt;" style="shape=hexagon;perimeter=hexagonPerimeter2;whiteSpace=wrap;html=1;fixedSize=1;fillColor=#FFF2CC;fontFamily=Helvetica;fontSize=11;fontColor=default;labelBackgroundColor=none;" parent="1" vertex="1">
          <mxGeometry x="-1027" y="868" width="146" height="38" as="geometry" />
        </mxCell>
        <mxCell id="a9L5b0YJBNE10wTY4Ymj-50" value="" style="ellipse;whiteSpace=wrap;html=1;aspect=fixed;fillColor=#FF0000;strokeWidth=2;" parent="1" vertex="1">
          <mxGeometry x="-1122.5" y="739" width="28" height="28" as="geometry" />
        </mxCell>
        <mxCell id="a9L5b0YJBNE10wTY4Ymj-51" value="" style="endArrow=block;html=1;rounded=0;endFill=1;strokeWidth=2;" parent="1" source="a9L5b0YJBNE10wTY4Ymj-50" target="a9L5b0YJBNE10wTY4Ymj-48" edge="1">
          <mxGeometry width="50" height="50" relative="1" as="geometry">
            <mxPoint x="-837.504815076529" y="793.9718581716346" as="sourcePoint" />
            <mxPoint x="-861.5" y="694" as="targetPoint" />
          </mxGeometry>
        </mxCell>
        <mxCell id="a9L5b0YJBNE10wTY4Ymj-52" value="" style="endArrow=none;html=1;rounded=0;strokeWidth=2;" parent="1" source="a9L5b0YJBNE10wTY4Ymj-49" target="a9L5b0YJBNE10wTY4Ymj-50" edge="1">
          <mxGeometry width="50" height="50" relative="1" as="geometry">
            <mxPoint x="-912.5" y="860" as="sourcePoint" />
            <mxPoint x="-887.5" y="796" as="targetPoint" />
          </mxGeometry>
        </mxCell>
        <mxCell id="a9L5b0YJBNE10wTY4Ymj-53" value="" style="endArrow=none;html=1;rounded=0;strokeWidth=2;" parent="1" source="a9L5b0YJBNE10wTY4Ymj-48" target="a9L5b0YJBNE10wTY4Ymj-2" edge="1">
          <mxGeometry width="50" height="50" relative="1" as="geometry">
            <mxPoint x="-1124" y="607" as="sourcePoint" />
            <mxPoint x="-1620" y="499" as="targetPoint" />
          </mxGeometry>
        </mxCell>
        <mxCell id="a9L5b0YJBNE10wTY4Ymj-54" value="Doesn&#39;t have appointments" style="shape=parallelogram;perimeter=parallelogramPerimeter;whiteSpace=wrap;html=1;fixedSize=1;fillColor=#FFA070;fontStyle=1;fontFamily=Helvetica;fontSize=11;fontColor=default;labelBackgroundColor=none;flipH=1;flipV=0;" parent="1" vertex="1">
          <mxGeometry x="-1349" y="814" width="240" height="42" as="geometry" />
        </mxCell>
        <mxCell id="a9L5b0YJBNE10wTY4Ymj-55" value="" style="endArrow=block;html=1;rounded=0;endFill=1;strokeWidth=2;" parent="1" source="a9L5b0YJBNE10wTY4Ymj-57" target="a9L5b0YJBNE10wTY4Ymj-27" edge="1">
          <mxGeometry width="50" height="50" relative="1" as="geometry">
            <mxPoint x="-1121" y="705" as="sourcePoint" />
            <mxPoint x="-1299" y="664" as="targetPoint" />
          </mxGeometry>
        </mxCell>
        <mxCell id="a9L5b0YJBNE10wTY4Ymj-56" value="" style="endArrow=none;html=1;rounded=0;strokeWidth=2;" parent="1" source="a9L5b0YJBNE10wTY4Ymj-54" target="a9L5b0YJBNE10wTY4Ymj-57" edge="1">
          <mxGeometry width="50" height="50" relative="1" as="geometry">
            <mxPoint x="-1203" y="771" as="sourcePoint" />
            <mxPoint x="-1020.7558510879444" y="594.9978709578809" as="targetPoint" />
          </mxGeometry>
        </mxCell>
        <mxCell id="a9L5b0YJBNE10wTY4Ymj-57" value="" style="triangle;whiteSpace=wrap;html=1;rotation=-90;fillColor=#FFA070;strokeColor=default;" parent="1" vertex="1">
          <mxGeometry x="-1345" y="736" width="23" height="21" as="geometry" />
        </mxCell>
        <mxCell id="a9L5b0YJBNE10wTY4Ymj-58" value="" style="endArrow=block;html=1;rounded=0;endFill=1;strokeWidth=2;" parent="1" source="a9L5b0YJBNE10wTY4Ymj-60" target="a9L5b0YJBNE10wTY4Ymj-54" edge="1">
          <mxGeometry width="50" height="50" relative="1" as="geometry">
            <mxPoint x="-1172" y="888" as="sourcePoint" />
            <mxPoint x="-1181" y="856" as="targetPoint" />
          </mxGeometry>
        </mxCell>
        <mxCell id="a9L5b0YJBNE10wTY4Ymj-59" value="" style="endArrow=none;html=1;rounded=0;strokeWidth=2;" parent="1" source="a9L5b0YJBNE10wTY4Ymj-62" target="a9L5b0YJBNE10wTY4Ymj-60" edge="1">
          <mxGeometry width="50" height="50" relative="1" as="geometry">
            <mxPoint x="-1229" y="944" as="sourcePoint" />
            <mxPoint x="-1181.755851087944" y="922.9978709578809" as="targetPoint" />
            <Array as="points" />
          </mxGeometry>
        </mxCell>
        <mxCell id="a9L5b0YJBNE10wTY4Ymj-60" value="" style="triangle;whiteSpace=wrap;html=1;rotation=-90;fillColor=#00994D;" parent="1" vertex="1">
          <mxGeometry x="-1237.5" y="895" width="17" height="15" as="geometry" />
        </mxCell>
        <mxCell id="a9L5b0YJBNE10wTY4Ymj-61" value="&lt;b&gt;Message&lt;/b&gt;" style="rounded=0;whiteSpace=wrap;html=1;fillColor=#FFF2CC;fontFamily=Helvetica;fontSize=11;fontColor=default;labelBackgroundColor=none;" parent="1" vertex="1">
          <mxGeometry x="-1378.5" y="1102" width="90" height="36" as="geometry" />
        </mxCell>
        <mxCell id="a9L5b0YJBNE10wTY4Ymj-62" value="&lt;b&gt;Display appropriate message&lt;/b&gt;" style="shape=parallelogram;perimeter=parallelogramPerimeter;whiteSpace=wrap;html=1;fixedSize=1;fillColor=#dae8fc;strokeColor=#000000;strokeWidth=3;fontFamily=Helvetica;fontSize=11;fontColor=default;labelBackgroundColor=none;" parent="1" vertex="1">
          <mxGeometry x="-1338" y="955" width="218" height="44" as="geometry" />
        </mxCell>
        <mxCell id="a9L5b0YJBNE10wTY4Ymj-63" value="" style="ellipse;whiteSpace=wrap;html=1;aspect=fixed;fillColor=#3399FF;strokeWidth=2;" parent="1" vertex="1">
          <mxGeometry x="-1207" y="1026" width="28" height="28" as="geometry" />
        </mxCell>
        <mxCell id="a9L5b0YJBNE10wTY4Ymj-64" value="" style="endArrow=block;html=1;rounded=0;endFill=1;strokeWidth=2;" parent="1" source="a9L5b0YJBNE10wTY4Ymj-63" target="a9L5b0YJBNE10wTY4Ymj-62" edge="1">
          <mxGeometry width="50" height="50" relative="1" as="geometry">
            <mxPoint x="-1086.004815076529" y="1151.9718581716347" as="sourcePoint" />
            <mxPoint x="-1090" y="1107" as="targetPoint" />
          </mxGeometry>
        </mxCell>
        <mxCell id="a9L5b0YJBNE10wTY4Ymj-65" value="" style="endArrow=none;html=1;rounded=0;strokeWidth=2;" parent="1" source="a9L5b0YJBNE10wTY4Ymj-66" target="a9L5b0YJBNE10wTY4Ymj-63" edge="1">
          <mxGeometry width="50" height="50" relative="1" as="geometry">
            <mxPoint x="-1087" y="1214" as="sourcePoint" />
            <mxPoint x="-1062" y="1150" as="targetPoint" />
          </mxGeometry>
        </mxCell>
        <mxCell id="a9L5b0YJBNE10wTY4Ymj-66" value="&lt;b&gt;Display message&lt;/b&gt;" style="ellipse;whiteSpace=wrap;html=1;fillColor=#E4B9E7;strokeColor=#000000;fontFamily=Helvetica;fontSize=11;fontColor=default;labelBackgroundColor=none;" parent="1" vertex="1">
          <mxGeometry x="-1198" y="1090" width="120" height="44" as="geometry" />
        </mxCell>
        <mxCell id="a9L5b0YJBNE10wTY4Ymj-67" value="" style="endArrow=block;html=1;rounded=0;endFill=1;strokeWidth=2;" parent="1" source="a9L5b0YJBNE10wTY4Ymj-66" target="a9L5b0YJBNE10wTY4Ymj-61" edge="1">
          <mxGeometry width="50" height="50" relative="1" as="geometry">
            <mxPoint x="-1184" y="1185" as="sourcePoint" />
            <mxPoint x="-1193" y="1116" as="targetPoint" />
          </mxGeometry>
        </mxCell>
        <mxCell id="a9L5b0YJBNE10wTY4Ymj-68" value="&lt;b&gt;Output&lt;/b&gt;" style="edgeLabel;html=1;align=center;verticalAlign=middle;resizable=0;points=[];" parent="a9L5b0YJBNE10wTY4Ymj-67" vertex="1" connectable="0">
          <mxGeometry x="-0.0545" relative="1" as="geometry">
            <mxPoint as="offset" />
          </mxGeometry>
        </mxCell>
        <mxCell id="a9L5b0YJBNE10wTY4Ymj-69" value="" style="ellipse;whiteSpace=wrap;html=1;aspect=fixed;fillColor=#FF0000;strokeWidth=2;" parent="1" vertex="1">
          <mxGeometry x="-1092" y="912" width="28" height="28" as="geometry" />
        </mxCell>
        <mxCell id="a9L5b0YJBNE10wTY4Ymj-70" value="" style="endArrow=block;html=1;rounded=0;endFill=1;strokeWidth=2;" parent="1" source="a9L5b0YJBNE10wTY4Ymj-69" target="a9L5b0YJBNE10wTY4Ymj-62" edge="1">
          <mxGeometry width="50" height="50" relative="1" as="geometry">
            <mxPoint x="-1083.004815076529" y="1024.9718581716347" as="sourcePoint" />
            <mxPoint x="-1087" y="980" as="targetPoint" />
          </mxGeometry>
        </mxCell>
        <mxCell id="a9L5b0YJBNE10wTY4Ymj-71" value="" style="endArrow=none;html=1;rounded=0;strokeWidth=2;" parent="1" source="a9L5b0YJBNE10wTY4Ymj-49" target="a9L5b0YJBNE10wTY4Ymj-69" edge="1">
          <mxGeometry width="50" height="50" relative="1" as="geometry">
            <mxPoint x="-1084" y="1087" as="sourcePoint" />
            <mxPoint x="-1059" y="1023" as="targetPoint" />
          </mxGeometry>
        </mxCell>
        <mxCell id="a9L5b0YJBNE10wTY4Ymj-72" value="" style="endArrow=block;html=1;rounded=0;endFill=1;strokeWidth=2;" parent="1" source="a9L5b0YJBNE10wTY4Ymj-49" target="a9L5b0YJBNE10wTY4Ymj-66" edge="1">
          <mxGeometry width="50" height="50" relative="1" as="geometry">
            <mxPoint x="-1258" y="1189" as="sourcePoint" />
            <mxPoint x="-1267" y="1120" as="targetPoint" />
          </mxGeometry>
        </mxCell>
        <mxCell id="a9L5b0YJBNE10wTY4Ymj-73" value="&lt;b&gt;Performs&lt;/b&gt;" style="edgeLabel;html=1;align=center;verticalAlign=middle;resizable=0;points=[];" parent="a9L5b0YJBNE10wTY4Ymj-72" vertex="1" connectable="0">
          <mxGeometry x="0.0079" relative="1" as="geometry">
            <mxPoint as="offset" />
          </mxGeometry>
        </mxCell>
        <mxCell id="a9L5b0YJBNE10wTY4Ymj-74" value="" style="endArrow=block;html=1;rounded=0;endFill=1;strokeWidth=2;" parent="1" source="a9L5b0YJBNE10wTY4Ymj-62" target="a9L5b0YJBNE10wTY4Ymj-61" edge="1">
          <mxGeometry width="50" height="50" relative="1" as="geometry">
            <mxPoint x="-1248" y="1128" as="sourcePoint" />
            <mxPoint x="-1356" y="1096" as="targetPoint" />
          </mxGeometry>
        </mxCell>
        <mxCell id="a9L5b0YJBNE10wTY4Ymj-75" value="&lt;b&gt;Concerns&lt;/b&gt;" style="edgeLabel;html=1;align=center;verticalAlign=middle;resizable=0;points=[];" parent="a9L5b0YJBNE10wTY4Ymj-74" vertex="1" connectable="0">
          <mxGeometry x="-0.0545" relative="1" as="geometry">
            <mxPoint as="offset" />
          </mxGeometry>
        </mxCell>
      </root>
    </mxGraphModel>
  </diagram>
</mxfile>
